<svg xmlns="http://www.w3.org/2000/svg" viewBox="0 0 512 512">
<rect width="512" height="512" rx="104" fill="#fff7ec"/>
<ellipse cx="256" cy="386" rx="134" ry="25" fill="#78502d" opacity=".18"/>
<path d="M140 248h232l-36 164H176z" fill="#c87943" stroke="#8f4f2b" stroke-width="14" stroke-linejoin="round"/>
<ellipse cx="256" cy="250" rx="128" ry="38" fill="#b86638" stroke="#8f4f2b" stroke-width="14"/>
<ellipse cx="256" cy="250" rx="82" ry="22" fill="#4a3425"/>
<path d="M256 248V132M256 185c-52-42-80-47-105-69M256 176c54-48 89-56 126-76" stroke="#557446" stroke-width="18" stroke-linecap="round" fill="none"/>
<ellipse cx="158" cy="118" rx="55" ry="25" fill="#80a85a" stroke="#557446" stroke-width="7" transform="rotate(29 158 118)"/>
<ellipse cx="356" cy="104" rx="62" ry="28" fill="#8db663" stroke="#557446" stroke-width="7" transform="rotate(-27 356 104)"/>
<rect x="292" y="300" width="134" height="88" rx="18" fill="#fff2d9" stroke="#a67e54" stroke-width="8"/>
<path d="M292 300l-42-42" stroke="#785a41" stroke-width="7" stroke-linecap="round"/>
</svg>
